<?xml version="1.0" encoding="UTF-8"?> <svg xmlns="http://www.w3.org/2000/svg" xmlns:xlink="http://www.w3.org/1999/xlink" baseProfile="tiny" class="icon-1" height="100%" id="adv-ico1" viewBox="0 0 113.8 85.8" width="100%"> <g> <polygon fill="#D16A1B" points="47,0 37.1,1.6 31.9,7.6 31.1,15.1 31.1,67.3 38.5,67.3 38.5,17.3 39,10.5 43.2,7.3 47.3,7.3 "></polygon> <polygon fill="#D16A1B" points="96.5,0 87,1.6 82,7.6 81.2,15.1 81.2,67.3 88.3,67.3 88.3,17.3 88.8,10.5 92.8,7.3 96.7,7.3 "></polygon> <rect fill="#F2B927" height="7" width="47.7" x="33.5" y="17.3"></rect> <polygon fill="#EC932A" points="43.6,24.3 33.5,24.3 33.5,17.3 45.9,17.3 "></polygon> <rect fill="#F2B927" height="7" width="47.7" x="33.5" y="32.4"></rect> <polygon fill="#EC932A" points="43.6,39.5 33.5,39.5 33.5,32.4 45.9,32.4 "></polygon> <rect fill="#F2B927" height="7" width="47.7" x="33.5" y="47.6"></rect> <polygon fill="#EC932A" points="43.6,54.6 33.5,54.6 33.5,47.6 45.9,47.6 "></polygon> <polygon fill="#F0D423" points="45,0 35.1,1.6 29.9,7.6 29.1,15.1 29.1,67.3 36.5,67.3 36.5,17.3 37,10.5 41.2,7.3 45.3,7.3 "></polygon> <polygon fill="#F0D423" points="94.5,0 85,1.6 80,7.6 79.2,15.1 79.2,67.3 86.3,67.3 86.3,17.3 86.8,10.5 90.8,7.3 94.7,7.3 "></polygon> <polygon fill="#F2B927" points="113.4,60 110.2,63.1 102.4,65.9 94.2,63.6 91.4,60 90.6,60 87.4,63.1 79.7,65.9 71.5,63.6 68.6,60 67.9,60 64.7,63.1 56.9,65.9 48.7,63.6 45.8,60 45.1,60 41.9,63.1 34.1,65.9 26,63.6 23.1,60 22.4,60 19.2,63.1 11.4,65.9 3.2,63.6 0.3,60 0,60 0,79.8 113.8,79.8 113.8,60 "></polygon> <polygon fill="#EC932A" points="113.4,69.5 110.2,72.6 102.4,75.4 94.2,73.1 91.4,69.5 90.6,69.5 87.4,72.6 79.7,75.4 71.5,73.1 68.6,69.5 67.9,69.5 64.7,72.6 56.9,75.4 48.7,73.1 45.8,69.5 45.1,69.5 41.9,72.6 34.1,75.4 26,73.1 23.1,69.5 22.4,69.5 19.2,72.6 11.4,75.4 3.2,73.1 0.3,69.5 0,69.5 0,85.8 113.8,85.8 113.8,69.5 "></polygon> </g> </svg> 