<?xml version="1.0" encoding="UTF-8"?> <svg xmlns="http://www.w3.org/2000/svg" xmlns:xlink="http://www.w3.org/1999/xlink" baseProfile="tiny" class="icon-3" id="adv-ico3" viewBox="0 0 1200 1200" x="0px" y="0px" xml:space="preserve"> <path d="M628.9,612.7c-10.1,11.1-52.7,11.1-62.7,22.8l547.4-6.4L761.2,994.1H462.7H89.5c0.2-2.9,0.5-5.8,0.7-8.7 c-11.8,2.7-23.7,5.4-35.3,7.2c-0.3,6.2-0.6,12.2-0.9,17.9l-12,6.4h30.4l390.3,11.4h312.6L1193,612.7H628.9z" fill="#E16E43"></path> <path d="M600.5,601.3l94.4-94.3c4.5-4.5,8.4-9.7,11.6-15.3c0.2-0.4,0.4-0.7,0.6-1.1c39.6-58.4,19.7-140.4-26.1-198.8 c-69.8-88.8-241.4-25.7-250-23.6l-8.9,3.5l-362.4,337l-1.4,11.7C58,622,11,810.1,11,810.1l25.9,189l5.1,17.8h12h391.6h312.6 l417.7-415.6H600.5z" fill="#FBB739"></path> <path d="M566.3,635.5L344.3,857.2c-6.5,7.3-13.7,14.1-21.5,20.2c-28.7,22.6-64.5,32.6-100.7,28.2 c-36.2-4.4-68.6-22.6-91.2-51.3C92.5,805.4,101.1,734.4,150,696c40.6-31.9,99.6-24.8,131.4,15.8c12.9,16.4,18.7,36.9,16.2,57.7 c-2.5,20.8-12.9,39.3-29.4,52.2c-28.7,22.5-70.3,17.5-92.8-11.2c-19.2-24.4-14.9-59.8,9.5-79l21.1,26.9c-9.6,7.5-11.3,21.5-3.7,31 c10.9,13.8,31,16.3,44.8,5.4c9.3-7.3,15.2-17.7,16.6-29.5c1.4-11.7-1.8-23.3-9.1-32.5c-20.3-25.8-57.7-30.3-83.5-10.1 c-34.1,26.8-40,76.3-13.3,110.3c16.9,21.5,41.2,35.2,68.4,38.5c27.2,3.3,54-4.2,75.6-21.1c27.8-21.8,45.5-53.2,49.7-88.3 c4.2-35.1-5.5-69.8-27.3-97.6c-43.6-55.5-173.6-41-233.2-28.2c-5.5,52.7-9.9,236.2-18.5,346.3h373.2h298.5l349-347.2H566.3z" fill="#ECD731"></path> <path d="M880.8,634.2c0,0-290.4,286.6-586.4,347.3c-170.8,3.8-222,1.2-222,1.2l87.3-96.1l379.6-262l27.1,10.8 L880.8,634.2z" fill="#E69333"></path> <path d="M184.9,731.6l32.3-27.8l-42.2-8.8l-33.9,30.8l-19.5,46v46l63.3,60.5l81.2,8.5l58.8-29.4L361,791l6.6-84.1 l-37-61l-58.8-30.4L213,608h-65.5L101,618.4l-20.9,10.6l-36.8,57.7l-5.6,133.8l20,177.1l135.3-133.5l8.5-12.3l11.4-15.2L168.4,794 c0,0-13.3-35.8-13.3-35.5c0,0.4,21.8-27.2,21.8-27.2L184.9,731.6z" fill="#CB6825"></path> <polygon fill="#CB6825" points="184.9,731.6 173.7,717.8 223.6,696.2 280.9,752.4 273,788 251.7,810.1 204,810.1 184.9,790.2 "></polygon> <path d="M600.5,601.3l94.4-94.3c4.5-4.5,8.4-9.7,11.6-15.3c0.2-0.4,0.4-0.7,0.6-1.1c39.6-58.4,19.7-140.4-26.1-198.8 c-69.8-88.8-241.4-25.7-250-23.6l-8.9,3.5l-362.4,337l-1.4,11.7C58,622,11,810.1,11,810.1l25.9,189l5.1,17.8h12h391.6h312.6 l417.7-415.6H600.5z M744.1,982.7H445.6H72.4L46.5,814.1l44.3-177.7c0,0,187.8-36.6,233.2,28.2c20.3,29,31.5,62.5,27.3,97.6 c-4.2,35.1-21.9,66.5-49.7,88.3c-21.5,16.9-48.4,24.4-75.6,21.1c-27.2-3.3-51.5-16.9-68.4-38.5c-26.8-34.1-20.8-83.6,13.3-110.3 c25.8-20.2,63.2-15.7,83.5,10.1c7.3,9.3,10.5,20.8,9.1,32.5c-1.4,11.7-7.3,22.2-16.6,29.5c-13.8,10.9-33.9,8.5-44.8-5.4 c-7.5-9.6-5.9-23.5,3.7-31l-21.1-26.9c-24.4,19.2-28.7,54.6-9.5,79c22.5,28.6,64.1,33.7,92.8,11.2c16.5-12.9,26.9-31.5,29.4-52.2 c2.5-20.8-3.2-41.3-16.2-57.7c-31.9-40.6-90.8-47.7-131.4-15.8c-48.9,38.4-57.4,109.4-19.1,158.3c22.5,28.7,54.9,46.9,91.2,51.3 c36.2,4.4,72-5.6,100.7-28.2c7.8-6.2,15-13,21.5-20.2l221.9-221.7h526.9L744.1,982.7z" fill="#FBB739"></path> <path d="M351,643.6c27.5,35,39.7,78.6,34.4,122.8c-0.1,1-0.3,2-0.4,3l287.8-285.9C711,436,693.1,362.7,654.1,313 c-44.3-56.4-148.5-26.4-206.5-13.5c0,0.1-0.1,0.2-0.1,0.3l-8.4,3.3L123.5,596.2C190.2,586.7,302.5,581.8,351,643.6z" fill="#ECD731"></path> <polygon fill="#FBEC80" points="602.9,293.2 389.2,575.9 676.3,377.8 646.2,321 "></polygon> </svg> 