<?xml version="1.0" encoding="UTF-8"?> <svg xmlns="http://www.w3.org/2000/svg" xmlns:xlink="http://www.w3.org/1999/xlink" baseProfile="tiny" class="icon-2" height="100%" id="adv-ico2" viewBox="0 0 103.2 96.9" width="100%"> <rect fill="#F0D424" height="31" transform="matrix(0.9627 0.2705 -0.2705 0.9627 11.3332 -19.8013)" width="7.7" x="73.7" y="15.7"></rect> <rect fill="#D16A1B" height="31" transform="matrix(0.9628 0.2703 -0.2703 0.9628 11.5992 -20.4238)" width="2.6" x="78.7" y="16.4"></rect> <rect fill="#E98D2C" height="9.2" transform="matrix(0.872 -0.4895 0.4895 0.872 3.4086 42.0883)" width="9.2" x="77.6" y="9.9"></rect> <rect fill="#EC932A" height="42.7" transform="matrix(0.974 -0.2266 0.2266 0.974 -9.6347 3.4785)" width="5.4" x="7.6" y="22.4"></rect> <polygon fill="#E98D2C" points="34.1,79.6 12.7,84.6 6.1,48.3 9.5,43.2 16.1,41.7 21.3,44.5 "></polygon> <polygon fill="#F0D423" points="3.6,1.2 0,2.8 0,17.9 0,25.2 7.3,25.2 22.4,25.2 22.8,21.1 22.4,19.9 5.3,19.9 5.3,2.8 3.7,1.2 "></polygon> <polygon fill="#EC932A" points="12.7,84.6 34.1,79.6 28.2,63.4 10,69.7 "></polygon> <polygon fill="#E98D2C" points="73.6,55.6 68.1,54 65.8,49.9 72.4,26.5 76.5,24.2 82,25.7 84.3,29.8 77.7,53.3 "></polygon> <polygon fill="#F0D423" points="66.3,0 61.6,3.4 61.6,3.5 64.4,9.1 97.3,18.4 103.2,6.9 98.8,1 "></polygon> <g> <path clip-path="url(#SVGID_2_)" d="M79.8,45.9l-13,0.5l-1,3.5l10.6,5.2c0.6-0.4,1.1-1,1.3-1.8L79.8,45.9z" fill="#EC932A"></path> <polygon clip-path="url(#SVGID_2_)" fill="#F0D423" points="8.3,82.9 52.3,49.5 70,48.9 82.3,56.2 87.8,69.7 85.3,83.9 71.7,96.9 66.5,96.5 14.7,96.5 9,92.5 "></polygon> <polygon clip-path="url(#SVGID_2_)" fill="#EC932A" points="85.3,83.9 87.3,73.1 8.8,89.6 9,92.5 14.7,96.5 66.5,96.5 71.7,96.9 "></polygon> <rect clip-path="url(#SVGID_2_)" fill="#D16A1B" height="23.6" transform="matrix(0.7071 -0.7071 0.7071 0.7071 -32.8458 65.7965)" width="23.6" x="51.2" y="60.8"></rect> <polygon clip-path="url(#SVGID_2_)" fill="#EC932A" points="83.9,8.3 83.4,8.6 87.1,15.3 79.7,19.5 80.4,20.8 88.4,16.3 "></polygon> <path clip-path="url(#SVGID_2_)" d="M64.4,9.1C64.8,9.3,63.9,9,64.4,9.1l32.9,9.3l5.9-11.5c0-0.1,0,0.1,0,0 L64.4,9.1z" fill="#EC932A"></path> <path clip-path="url(#SVGID_2_)" d="M67.8,71.2l-5.9-2.6c-0.7-0.3-1.4-0.1-1.6,0.4l-5.4,18.9h-6 c-1.6,0-2.8,2.8-2.8,2.8s1.3,2.8,2.8,2.8h8c1.6,0,2.8-2.8,2.8-2.8s-0.6-2.1-1.6-2.5l10.4-15.6C68.8,72.2,68.5,71.5,67.8,71.2" fill="#F0D423"></path> <path clip-path="url(#SVGID_2_)" d="M0,25.2h7.3h15c0,0,0.2-3.8,0.5-4.1c0-0.8,0,0,0,0L0,24V25.2z" fill="#EC932A"></path> </g> </svg> 