<svg width="457" height="120" viewBox="0 0 457 120" fill="none" xmlns="http://www.w3.org/2000/svg">
<g clip-path="url(#clip0_139_173)">
<path d="M115.461 89.8251C118.16 89.8251 121.558 90.2396 123.631 90.8598L121.102 96.7443C119.773 96.2518 117.409 95.9611 115.592 95.9611C109.788 95.9611 107.465 96.7893 105.76 104.789C104.067 112.746 105.971 113.822 111.773 113.822C113.601 113.822 116.129 113.49 117.62 113.038V119.046C115.259 119.628 111.773 120 109.08 120C99.7961 120 96.1496 116.479 98.6383 104.704C101.16 92.891 106.183 89.8251 115.461 89.8251Z" fill="white" fill-opacity="0.7"/>
<path d="M152.189 90.5284L150.945 96.3727H136.066L134.948 101.558H145.603L144.399 107.274H133.747L132.38 113.575H147.254L146.05 119.42H124.504L130.634 90.5284H152.189Z" fill="white" fill-opacity="0.7"/>
<path d="M164.319 101.678H172.19C173.473 101.678 174.226 100.935 174.675 98.9422C175.092 96.9561 174.675 96.2058 173.392 96.2058H165.519L164.319 101.678ZM169.872 113.742C171.277 113.742 172.19 112.786 172.651 110.549C173.141 108.184 172.611 107.107 171.114 107.107H163.2L161.795 113.742H169.872ZM179.652 111.627C178.451 117.429 175.092 119.42 170.406 119.42H153.912L160.049 90.5284H176.419C182.18 90.5284 183.094 92.9299 182.137 97.4547C181.309 101.471 179.817 103.795 174.552 104.209C179.984 104.456 180.65 107.107 179.652 111.627Z" fill="white" fill-opacity="0.7"/>
<path d="M214.452 90.5284L213.21 96.3727H198.328L197.206 101.558H207.862L206.659 107.274H196.007L194.638 113.575H209.517L208.315 119.42H186.763L192.898 90.5284H214.452Z" fill="white" fill-opacity="0.7"/>
<path d="M233.043 104.909C234.788 104.909 236.195 103.709 236.855 100.685C237.519 97.5356 236.773 96.2518 234.954 96.2518H227.739L225.913 104.909H233.043ZM216.172 119.42L222.309 90.5284H238.431C244.363 90.5284 245.436 94.7552 244.196 100.685C243.072 105.907 239.633 110.426 234.25 110.426H224.751L222.851 119.42H216.172Z" fill="white" fill-opacity="0.7"/>
<path d="M254.261 119.42H247.589L253.725 90.5284H260.396L258.156 101.06H269.018L271.256 90.5284H277.928L271.793 119.42H265.12L267.693 107.235H256.834L254.261 119.42Z" fill="white" fill-opacity="0.7"/>
<path d="M321.033 90.5284L314.9 119.42H308.187L314.32 90.5284H321.033ZM296.951 113.742C298.737 113.742 299.857 112.498 300.478 109.594C301.097 106.612 300.271 105.494 298.611 105.494H291.153L289.409 113.742H296.951ZM294.343 90.5284L292.353 99.8593H302.049C307.483 99.8593 308.885 104.25 307.772 109.594C306.481 115.648 303.504 119.42 298.031 119.42H281.537L287.67 90.5284H294.343Z" fill="white" fill-opacity="0.7"/>
<path d="M342.977 83.3202C342.563 85.1015 343.355 85.4762 345.008 85.4762C346.624 85.4762 347.54 85.1015 347.956 83.3202H351.846C350.979 87.3783 348.199 89.2455 344.018 89.2455C339.951 89.2455 337.926 87.3783 338.798 83.3202H342.977ZM350.857 119.42H344.268L348.284 100.394C343.517 106.817 338.417 113.368 333.401 119.42H324.66L330.795 90.5284H337.34L333.115 110.34C338.463 103.833 343.844 97.121 348.823 90.5284H356.985L350.857 119.42Z" fill="white" fill-opacity="0.7"/>
<path d="M57.3598 11.2614L47.6442 57.0703H63.9555L70.7322 25.1611H82.0493L75.2747 57.0703H91.5851L101.306 11.2614H57.3598Z" fill="white"/>
<path d="M202.62 11.2614L203.597 25.1611H216.857L210.088 57.0703H226.395L233.168 25.1611H246.813L252.368 11.2614H202.62Z" fill="white"/>
<path d="M337.023 11.2614C332.478 17.6752 324.811 28.0164 320.005 32.3831L324.542 11.2614H308.233L298.519 57.0703H314.829C322.023 51.5148 326.731 44.1468 331.844 35.3504L327.312 57.0703H343.614L353.335 11.2614H337.023Z" fill="#FF6B00"/>
<path d="M360.095 11.2614L357.164 25.1611H370.79L364.023 57.0703H380.332L387.107 25.1611H400.742L403.68 11.2614H360.095Z" fill="#FF6B00"/>
<path d="M439.967 11.2614C435.424 17.6752 427.767 28.0164 422.956 32.3831L427.504 11.2614H411.187L401.473 57.0703H417.785C424.985 51.5148 429.68 44.1468 434.8 35.3504L430.263 57.0703H446.568L456.289 11.2614H439.967Z" fill="#FF6B00"/>
<path d="M131.299 34.1665C129.064 44.5923 127.466 45.8363 122.286 45.8363C117.213 45.8363 116.14 44.5923 118.368 34.1665C120.681 23.3836 122.201 22.3957 127.286 22.3957C132.451 22.3957 133.609 23.3836 131.299 34.1665ZM129.952 9.92456C115.158 9.92456 106.07 15.1816 102.147 33.8946C98.1327 52.7015 104.725 58.3182 119.71 58.3182C134.851 58.3182 143.767 52.7015 147.788 33.8946C151.699 15.1816 145.016 9.92456 129.952 9.92456Z" fill="white"/>
<path d="M181.351 34.612C179.661 42.5463 177.52 45.1228 172.437 45.1228C169.322 45.1228 167.352 43.9711 167.621 42.7233L171.548 24.178C172.704 23.7435 175.197 23.3836 176.89 23.3836C182.065 23.3836 183.396 24.9803 181.351 34.612ZM179.742 9.92457C172.083 9.92457 162.899 11.2614 157.644 13.0427L144.631 74.189H160.939L164.597 56.8026C167.085 57.6038 169.767 58.3182 173.598 58.3182C183.928 58.3182 193.737 52.7015 197.655 34.2514C201.668 15.5394 195.787 9.92457 179.742 9.92457Z" fill="white"/>
<path d="M1.61343 32.0044C-3.73142 57.3233 4.28886 64.8949 24.4295 64.8949C30.2759 64.8949 35.3529 64.3015 40.3992 63.1627L43.7 47.5936C40.6279 48.4228 35.1892 49.1161 31.7376 49.1161C20.3305 49.1161 16.4991 47.5177 19.794 32.1844C23.0079 16.8581 27.4565 15.6023 38.8695 15.6023C42.4961 15.6023 47.6143 16.4054 50.1299 17.2926L53.3956 1.88928C49.0179 0.709488 43.8698 0.00717926 38.1483 0.00717926C18.0097 0.00717926 7.05321 6.60079 1.61343 32.0044Z" fill="white"/>
<path d="M251.98 32.0044C246.633 57.3233 254.659 64.8949 274.795 64.8949C280.644 64.8949 285.721 64.3015 290.775 63.1627L294.079 47.5936C291.003 48.4228 285.573 49.1161 282.11 49.1161C270.701 49.1161 266.87 47.5177 270.159 32.1844C273.376 16.8581 277.831 15.6023 289.238 15.6023C292.872 15.6023 297.992 16.4054 300.499 17.2926L303.77 1.88928C299.389 0.709488 294.243 0.00717926 288.527 0.00717926C268.384 0.00717926 257.414 6.60079 251.98 32.0044Z" fill="#FF6B00"/>
</g>
<defs>
<clipPath id="clip0_139_173">
<rect width="456.292" height="120" fill="white"/>
</clipPath>
</defs>
</svg>
