<svg width="238" height="63" viewBox="0 0 238 63" fill="none" xmlns="http://www.w3.org/2000/svg">
<g clip-path="url(#clip0_139_152)">
<path d="M60.1937 46.8288C61.6005 46.8288 63.3724 47.0449 64.4531 47.3683L63.1344 50.436C62.4417 50.1793 61.2093 50.0277 60.262 50.0277C57.236 50.0277 56.0251 50.4595 55.1364 54.6298C54.2536 58.7782 55.2464 59.3392 58.2708 59.3392C59.224 59.3392 60.5417 59.1663 61.3193 58.9303V62.0626C60.0885 62.3662 58.2708 62.56 56.8672 62.56C52.0271 62.56 50.126 60.7246 51.4235 54.5855C52.738 48.4272 55.3568 46.8288 60.1937 46.8288Z" fill="black"/>
<path d="M79.3412 47.1955L78.6926 50.2423H70.936L70.3526 52.9454H75.9078L75.2802 55.9256H69.7265L69.014 59.2105H76.7682L76.1406 62.2574H64.9078L68.1041 47.1955H79.3412Z" fill="black"/>
<path d="M85.6651 53.0079H89.7683C90.4375 53.0079 90.8298 52.6209 91.064 51.5819C91.2812 50.5464 91.064 50.1553 90.3948 50.1553H86.2907L85.6651 53.0079ZM88.5599 59.2975C89.2927 59.2975 89.7683 58.7991 90.0088 57.6329C90.264 56.4001 89.988 55.8386 89.2074 55.8386H85.0818L84.349 59.2975H88.5599ZM93.6588 58.1949C93.0323 61.2199 91.2812 62.2574 88.8386 62.2574H80.2396L83.4391 47.1955H91.973C94.9766 47.1955 95.4531 48.4475 94.9542 50.8064C94.5224 52.9001 93.7448 54.1116 91 54.3277C93.8318 54.4563 94.1787 55.8386 93.6588 58.1949Z" fill="black"/>
<path d="M111.801 47.1955L111.154 50.2423H103.395L102.81 52.9454H108.366L107.738 55.9256H102.185L101.471 59.2105H109.228L108.602 62.2574H97.3656L100.564 47.1955H111.801Z" fill="black"/>
<path d="M121.493 54.6928C122.403 54.6928 123.136 54.0668 123.481 52.4902C123.827 50.8485 123.437 50.1793 122.49 50.1793H118.728L117.776 54.6928H121.493ZM112.698 62.2574L115.897 47.1955H124.302C127.395 47.1955 127.954 49.3991 127.307 52.4902C126.721 55.2126 124.929 57.5688 122.122 57.5688H117.17L116.18 62.2574H112.698Z" fill="black"/>
<path d="M132.555 62.2574H129.077L132.275 47.1955H135.753L134.585 52.686H140.248L141.415 47.1955H144.893L141.695 62.2574H138.216L139.557 55.9053H133.896L132.555 62.2574Z" fill="black"/>
<path d="M167.365 47.1955L164.168 62.2574H160.668L163.865 47.1955H167.365ZM154.811 59.2975C155.741 59.2975 156.325 58.6491 156.649 57.135C156.972 55.5803 156.541 54.9975 155.676 54.9975H151.788L150.879 59.2975H154.811ZM153.451 47.1955L152.413 52.06H157.468C160.301 52.06 161.032 54.3491 160.452 57.135C159.779 60.2912 158.227 62.2574 155.373 62.2574H146.775L149.972 47.1955H153.451Z" fill="black"/>
<path d="M178.805 43.4376C178.589 44.3663 179.003 44.5616 179.864 44.5616C180.707 44.5616 181.184 44.3663 181.401 43.4376H183.429C182.977 45.5532 181.528 46.5267 179.348 46.5267C177.228 46.5267 176.172 45.5532 176.627 43.4376H178.805ZM182.913 62.2574H179.479L181.572 52.3386C179.087 55.6871 176.428 59.1027 173.813 62.2574H169.256L172.455 47.1955H175.867L173.664 57.5241C176.452 54.1313 179.257 50.6324 181.853 47.1955H186.108L182.913 62.2574Z" fill="black"/>
<path d="M29.9036 5.87092L24.8386 29.7527H33.3422L36.8751 13.1173H42.7751L39.2432 29.7527H47.7464L52.814 5.87092H29.9036Z" fill="black"/>
<path d="M105.633 5.87092L106.142 13.1173H113.055L109.526 29.7527H118.027L121.558 13.1173H128.672L131.568 5.87092H105.633Z" fill="black"/>
<path d="M175.701 5.87092C173.332 9.21465 169.335 14.6059 166.829 16.8824L169.195 5.87092H160.692L155.628 29.7527H164.131C167.881 26.8564 170.336 23.0152 173.001 18.4293L170.639 29.7527H179.137L184.205 5.87092H175.701Z" fill="black"/>
<path d="M187.729 5.87092L186.201 13.1173H193.305L189.777 29.7527H198.28L201.812 13.1173H208.92L210.452 5.87092H187.729Z" fill="black"/>
<path d="M229.369 5.87092C227.001 9.21465 223.009 14.6059 220.501 16.8824L222.872 5.87092H214.365L209.301 29.7527H217.805C221.559 26.8564 224.007 23.0152 226.676 18.4293L224.311 29.7527H232.811L237.879 5.87092H229.369Z" fill="black"/>
<path d="M68.4505 17.8121C67.2855 23.2475 66.4521 23.896 63.7516 23.896C61.1068 23.896 60.5479 23.2475 61.7093 17.8121C62.9151 12.1907 63.7073 11.6756 66.3584 11.6756C69.051 11.6756 69.6547 12.1907 68.4505 17.8121ZM67.7484 5.174C60.0355 5.174 55.2978 7.91467 53.2526 17.6704C51.1598 27.4751 54.5964 30.4032 62.4088 30.4032C70.3021 30.4032 74.9505 27.4751 77.0469 17.6704C79.086 7.91467 75.6016 5.174 67.7484 5.174Z" fill="black"/>
<path d="M94.5443 18.0444C93.6631 22.1808 92.5469 23.524 89.8973 23.524C88.2735 23.524 87.2464 22.9236 87.3864 22.2731L89.4339 12.6048C90.0364 12.3783 91.336 12.1907 92.2188 12.1907C94.9167 12.1907 95.6104 13.0231 94.5443 18.0444ZM93.7057 5.17399C89.7125 5.17399 84.9245 5.87092 82.1849 6.79959L75.4011 38.6772H83.9027L85.8099 29.6131C87.1068 30.0308 88.5052 30.4032 90.5027 30.4032C95.888 30.4032 101.002 27.4751 103.044 17.8564C105.136 8.10119 102.07 5.17399 93.7057 5.17399Z" fill="black"/>
<path d="M0.841132 16.6849C-1.94532 29.8845 2.23592 33.8318 12.7359 33.8318C15.7839 33.8318 18.4307 33.5225 21.0615 32.9288L22.7823 24.8121C21.1807 25.2444 18.3453 25.6058 16.5459 25.6058C10.5989 25.6058 8.60155 24.7725 10.3193 16.7788C11.9948 8.78865 14.314 8.13398 20.264 8.13398C22.1546 8.13398 24.8229 8.55265 26.1344 9.01518L27.8369 0.984917C25.5546 0.36985 22.8708 0.00371552 19.888 0.00371552C9.38905 0.00371552 3.67707 3.44118 0.841132 16.6849Z" fill="black"/>
<path d="M131.366 16.6849C128.578 29.8845 132.762 33.8318 143.26 33.8318C146.309 33.8318 148.956 33.5225 151.591 32.9288L153.313 24.8121C151.709 25.2444 148.879 25.6058 147.073 25.6058C141.125 25.6058 139.128 24.7725 140.843 16.7788C142.52 8.78865 144.843 8.13398 150.789 8.13398C152.684 8.13398 155.353 8.55265 156.66 9.01518L158.365 0.984917C156.081 0.36985 153.399 0.00371552 150.419 0.00371552C139.917 0.00371552 134.199 3.44118 131.366 16.6849Z" fill="black"/>
</g>
<defs>
<clipPath id="clip0_139_152">
<rect width="237.88" height="62.56" fill="white"/>
</clipPath>
</defs>
</svg>
