<?xml version="1.0" encoding="UTF-8"?> <svg xmlns="http://www.w3.org/2000/svg" xmlns:xlink="http://www.w3.org/1999/xlink" baseProfile="tiny" class="icon-5" height="100%" id="adv-ico5" viewBox="0 0 53.9 45.8" width="100%"> <g> <path clip-path="url(#SVGID_2_)" d="M22.3,33.3l-11.7-1.5c0,0-3-1.4-4.2-2.4c-2-1.8-0.3-6.2-0.3-6.2l8.4-5.8 c0,0,12.6-2.6,19.3-3.4c2-0.2,7.2,4.4,7.2,4.4l4.6,3.4l-1.1,6.8L34.7,32L22.3,33.3z" fill="#D16A1B"></path> <path clip-path="url(#SVGID_2_)" d="M0,36.1l6.7-5.7c0,0,7.4-3.3,10.9-3c7.2,0.6,12,3.2,19,0.9 c2-0.7,6.5-4.7,6.5-4.7l3.3,0.5c0,0,6.2,4.9,7.2,9c0.2,0.7,0.5,2.1,0.5,2.1v2.2l-3.7,4c0,0-7.9,3-12.1,3.7c-6.2,1-12.4,1-18.6,0.4 c-4.4-0.4-8.8-1.2-12.9-2.8C3.8,41.5,0,37.3,0,37.3V36.1z" fill="#EC932A"></path> <path clip-path="url(#SVGID_2_)" d="M53.4,33.1c-1-4-7.2-9-7.2-9L43,23.6c0,0-4.5,4-6.5,4.7 c-6.9,2.3-11.7-0.3-19-0.9c-3.5-0.3-10.9,3-10.9,3L0,36.1v1.2c0,0,0.4,0.4,0.9,1l5.6-4.8c0,0,7.3-1.1,10.8-0.9 c7.2,0.6,12.1,1.1,19-1.3c2-0.7,6.8-2.3,6.8-2.3l2.9-1.8c0,0,6.2,4.9,7.2,9c0.1,0.4,0.2,1,0.3,1.5l0.3-0.3v-2.2 C53.9,35.2,53.6,33.8,53.4,33.1" fill="#D16A1B"></path> <path clip-path="url(#SVGID_2_)" d="M22.6,31.9l-11.7-1.5c0,0-3-1.4-4.2-2.4c-2-1.8-0.3-6.2-0.3-6.2l8.4-5.8 c0,0,12.6-2.6,19.3-3.4c2-0.2,7.2,4.4,7.2,4.4l4.6,3.4L44.8,27L35,30.6L22.6,31.9z" fill="#F2B927"></path> <polygon clip-path="url(#SVGID_2_)" fill="#F0D423" points="36.5,20.3 30,23 26.5,25.7 26.9,28.3 32.8,28.8 39.9,26.3 41.7,24.6 41.4,20.1 "></polygon> <polygon clip-path="url(#SVGID_2_)" fill="#F0D423" points="40.3,33.5 33.7,36.8 30.5,39.1 31.5,41.9 36.8,42.8 46.2,40.5 50.4,37.7 50.7,34.6 46.3,31.9 "></polygon> <path clip-path="url(#SVGID_2_)" d="M43.7,43c-6.2,1-12.4,1-18.6,0.5c-4.4-0.4-8.8-1.2-12.9-2.8 c-2.7-1.1-6.5-5.3-6.5-5.3v-1.2l6.7-5.7c0,0,0.3-0.1,0.7-0.3c-3.2,0.9-6.4,2.3-6.4,2.3L0,36.1v1.2c0,0,3.8,4.2,6.5,5.3 c4.1,1.7,8.5,2.4,12.9,2.8C25.6,46,31.8,46,38,45c4.2-0.7,12.1-3.7,12.1-3.7l0,0C47.9,42,45.5,42.7,43.7,43" fill="#D16A1B"></path> <path clip-path="url(#SVGID_2_)" d="M38.1,28.5l-12.4,1.3L14,28.2c0,0-3-1.4-4.2-2.4c-2-1.7-0.4-5.9-0.3-6.2 l-3.1,2.1c0,0-1.7,4.5,0.3,6.2c1.2,1,4.2,2.4,4.2,2.4l11.7,1.5L35,30.6l9.8-3.6l0.2-1.1L38.1,28.5z" fill="#EC932A"></path> <polygon clip-path="url(#SVGID_2_)" fill="#D16A1B" points="28.3,18 15,15.7 12.5,6.4 20.3,1.1 33.4,2 43.6,8.2 45,9.4 44.9,13.8 39.9,16.4 "></polygon> <path clip-path="url(#SVGID_2_)" d="M29.7,16.9l-11.5-2c-1.1-0.2-2.1-1-2.6-2l-2.9-6.4l9-6.5l13.2,0.9L45,7.1 l1.4,1.3l-0.2,4.4l-4.9,2.6L29.7,16.9z" fill="#F0D423"></path> <polygon clip-path="url(#SVGID_2_)" fill="#FFE97D" points="33.8,9.8 35.7,8.4 38.7,7.9 43.3,9 44.3,10.3 43.3,12.1 37.3,14 34.4,14.1 32.9,12.3 "></polygon> <path clip-path="url(#SVGID_2_)" d="M34.2,15.5l-13.3-2.3l-3.7-8.1l6.8-5L21.7,0l-9,6.5l2.9,6.4 c0.5,1,1.4,1.8,2.5,2l11.5,2l11.7-1.6l2.1-1.1L34.2,15.5z" fill="#EC932A"></path> </g> </svg> 